<svg width="216" height="216" viewBox="0 0 216 216" fill="none" xmlns="http://www.w3.org/2000/svg">
<rect width="216" height="216" rx="108" fill="#FF1F00"/>
<rect width="216" height="216" rx="108" fill="black"/>
<path d="M49.9658 39.1455C59.3816 39.1456 68.3377 42.4049 75.4385 47.5801C75.6118 47.4846 75.7851 47.3927 75.9619 47.3008C83.1371 43.5769 90.9885 41.159 99.0381 40.1572C99.8062 40.0617 100.578 39.977 101.354 39.9062C103.396 39.7186 105.449 39.626 107.506 39.626C119.729 39.626 131.729 42.8834 142.214 49.0498C152.384 55.0286 160.89 63.581 166.815 73.7793L168.274 76.2891L166.95 78.8691C166.147 80.4373 165.268 81.9451 164.323 83.3965C155.183 97.4213 139.651 105.942 122.656 105.942C122.051 105.942 121.445 105.927 120.84 105.906C120.681 105.899 120.525 105.889 120.366 105.882C119.924 105.861 119.481 105.839 119.038 105.808C118.822 105.79 118.61 105.769 118.397 105.751C118.012 105.719 117.626 105.687 117.244 105.645C117.007 105.616 116.773 105.584 116.536 105.556C116.175 105.513 115.817 105.471 115.46 105.418C115.209 105.383 114.961 105.34 114.713 105.301C114.37 105.244 114.026 105.192 113.683 105.128C113.428 105.082 113.173 105.029 112.918 104.979C112.589 104.912 112.256 104.848 111.923 104.773C111.665 104.717 111.407 104.654 111.148 104.594C110.823 104.519 110.497 104.441 110.175 104.356C109.913 104.289 109.651 104.218 109.393 104.147C109.205 104.094 109.017 104.048 108.829 103.995H108.659L108.04 103.769L107.75 103.694L107.615 103.627C107.091 103.461 106.589 103.294 106.101 103.117L105.746 103.032L105.611 102.962C102.026 101.907 98.3017 101.372 94.5283 101.372C75.1654 101.372 58.8074 115.475 55.8623 134.424C55.9012 134.498 55.9366 134.576 55.9756 134.65C56.1101 134.912 56.2526 135.174 56.3906 135.433C56.5605 135.751 56.7303 136.074 56.9072 136.389C57.0522 136.65 57.204 136.909 57.3525 137.167C57.5295 137.478 57.7105 137.786 57.8945 138.091C58.0503 138.349 58.2098 138.605 58.3691 138.859C58.5567 139.16 58.7439 139.458 58.9385 139.755C59.1048 140.006 59.2715 140.257 59.4414 140.509C59.6396 140.803 59.8383 141.093 60.04 141.383C60.2135 141.631 60.3904 141.879 60.5674 142.123C60.7726 142.406 60.981 142.693 61.1934 142.973C61.3314 143.157 61.4733 143.337 61.6113 143.518C64.206 136.225 68.6561 129.652 74.5889 124.498C82.8084 117.355 93.3391 113.422 104.238 113.422C108.504 113.422 112.716 114.023 116.776 115.191L116.787 115.16C121.01 116.541 125.432 117.241 129.924 117.241C141.938 117.241 153.152 112.214 161.085 103.521C160.873 102.802 160.759 102.041 160.759 101.252C160.759 96.767 164.395 93.1309 168.88 93.1309C173.365 93.1311 177 96.7671 177 101.252C177 105.294 174.044 108.646 170.175 109.266C160.196 121.018 145.605 127.86 129.92 127.86C124.716 127.86 119.583 127.103 114.642 125.616V125.631C111.289 124.576 107.788 124.041 104.234 124.041C95.8948 124.041 87.8384 127.05 81.5518 132.512C75.58 137.701 71.5757 144.757 70.1846 152.474C70.3686 152.626 70.5533 152.777 70.7373 152.93C70.9461 153.103 71.1549 153.276 71.3672 153.446C71.6822 153.698 72.0011 153.942 72.3232 154.187C72.525 154.342 72.7234 154.498 72.9287 154.65H72.9424C73.2999 154.919 73.6686 155.178 74.0332 155.437C74.2065 155.56 74.3726 155.684 74.5459 155.805C75.0875 156.18 75.6366 156.548 76.1924 156.905C76.9355 157.383 77.6893 157.836 78.4502 158.278C82.514 144.848 95.0099 135.156 109.615 135.156C111.817 135.156 114.009 135.376 116.157 135.814V135.801C116.369 135.854 116.582 135.9 116.794 135.953C117.063 136.013 117.332 136.076 117.598 136.144C120.61 136.83 123.697 137.312 126.794 137.577C137.651 138.501 148.412 136.781 158.306 132.576C158.865 128.64 162.25 125.609 166.342 125.609C170.827 125.61 174.462 129.245 174.462 133.729C174.462 138.214 170.827 141.85 166.342 141.851C165.606 141.851 164.897 141.751 164.221 141.57C154.26 146.105 143.491 148.445 132.521 148.445C130.313 148.445 128.101 148.353 125.885 148.162C122.398 147.865 118.918 147.323 115.513 146.562V146.576C115.385 146.541 115.261 146.508 115.134 146.477C114.865 146.416 114.596 146.35 114.327 146.286C112.784 145.946 111.198 145.772 109.602 145.772C99.2404 145.772 90.4611 153.004 88.2168 162.792C94.3655 164.962 100.875 166.091 107.502 166.091C112.744 166.091 117.895 165.397 122.879 164.027C123.987 160.859 127 158.583 130.547 158.583C135.032 158.583 138.667 162.218 138.667 166.703C138.667 171.188 135.032 174.824 130.547 174.824C129.219 174.824 127.969 174.505 126.861 173.938C120.603 175.779 114.115 176.714 107.506 176.714C94.3022 176.714 81.4772 172.951 70.4258 165.829C59.6682 158.898 51.0808 149.139 45.5869 137.609L44.9355 136.232V136.193C40.9709 127.365 38.96 117.949 38.96 108.172C38.96 90.8161 45.4277 74.5431 56.6631 62.1572C57.1409 60.5255 57.4023 58.8053 57.4023 57.0215C57.4023 50.6321 54.1137 45.0106 49.1367 41.7539C47.9618 40.9857 48.5075 39.1455 49.9092 39.1455H49.9658ZM107.506 50.2461C98.1077 50.2461 89.1412 52.4229 80.8545 56.7236V56.7275C61.5623 66.7453 49.5791 86.4588 49.5791 108.176C49.5791 111.365 49.8343 114.508 50.3369 117.595C58.6662 101.531 75.4493 90.7559 94.5254 90.7559C97.4916 90.7559 100.44 91.0252 103.336 91.542C103.042 89.9315 102.886 88.2749 102.886 86.583C102.886 82.6078 103.736 78.8268 105.269 75.418C105.453 75.0038 106.072 75.1348 106.072 75.5879V75.6094C106.072 84.0268 110.815 91.3361 117.774 95.0176C117.966 95.0424 118.161 95.0715 118.355 95.0928C118.642 95.1211 118.925 95.1452 119.212 95.1699C119.4 95.1841 119.591 95.2056 119.782 95.2197C120.101 95.2445 120.419 95.2583 120.737 95.2725C120.897 95.2795 121.057 95.2908 121.216 95.2979C121.693 95.312 122.171 95.3223 122.652 95.3223C135.134 95.3223 146.61 89.4817 153.931 79.7295C154.688 78.7206 155.4 77.6694 156.065 76.5791C151.17 69.0711 144.568 62.7554 136.826 58.2031C127.977 52.9961 117.839 50.2461 107.506 50.2461ZM129.082 63.5703C132.894 63.5705 135.984 66.6605 135.984 70.4727C135.984 74.2848 132.894 77.3749 129.082 77.375C125.27 77.375 122.179 74.2849 122.179 70.4727C122.179 66.6605 125.27 63.5703 129.082 63.5703Z" fill="url(#paint0_linear_2010_2)"/>
<path d="M49.9658 39.1455C59.3816 39.1456 68.3377 42.4049 75.4385 47.5801C75.6118 47.4846 75.7851 47.3927 75.9619 47.3008C83.1371 43.5769 90.9885 41.159 99.0381 40.1572C99.8062 40.0617 100.578 39.977 101.354 39.9062C103.396 39.7186 105.449 39.626 107.506 39.626C119.729 39.626 131.729 42.8834 142.214 49.0498C152.384 55.0286 160.89 63.581 166.815 73.7793L168.274 76.2891L166.95 78.8691C166.147 80.4373 165.268 81.9451 164.323 83.3965C155.183 97.4213 139.651 105.942 122.656 105.942C122.051 105.942 121.445 105.927 120.84 105.906C120.681 105.899 120.525 105.889 120.366 105.882C119.924 105.861 119.481 105.839 119.038 105.808C118.822 105.79 118.61 105.769 118.397 105.751C118.012 105.719 117.626 105.687 117.244 105.645C117.007 105.616 116.773 105.584 116.536 105.556C116.175 105.513 115.817 105.471 115.46 105.418C115.209 105.383 114.961 105.34 114.713 105.301C114.37 105.244 114.026 105.192 113.683 105.128C113.428 105.082 113.173 105.029 112.918 104.979C112.589 104.912 112.256 104.848 111.923 104.773C111.665 104.717 111.407 104.654 111.148 104.594C110.823 104.519 110.497 104.441 110.175 104.356C109.913 104.289 109.651 104.218 109.393 104.147C109.205 104.094 109.017 104.048 108.829 103.995H108.659L108.04 103.769L107.75 103.694L107.615 103.627C107.091 103.461 106.589 103.294 106.101 103.117L105.746 103.032L105.611 102.962C102.026 101.907 98.3017 101.372 94.5283 101.372C75.1654 101.372 58.8074 115.475 55.8623 134.424C55.9012 134.498 55.9366 134.576 55.9756 134.65C56.1101 134.912 56.2526 135.174 56.3906 135.433C56.5605 135.751 56.7303 136.074 56.9072 136.389C57.0522 136.65 57.204 136.909 57.3525 137.167C57.5295 137.478 57.7105 137.786 57.8945 138.091C58.0503 138.349 58.2098 138.605 58.3691 138.859C58.5567 139.16 58.7439 139.458 58.9385 139.755C59.1048 140.006 59.2715 140.257 59.4414 140.509C59.6396 140.803 59.8383 141.093 60.04 141.383C60.2135 141.631 60.3904 141.879 60.5674 142.123C60.7726 142.406 60.981 142.693 61.1934 142.973C61.3314 143.157 61.4733 143.337 61.6113 143.518C64.206 136.225 68.6561 129.652 74.5889 124.498C82.8084 117.355 93.3391 113.422 104.238 113.422C108.504 113.422 112.716 114.023 116.776 115.191L116.787 115.16C121.01 116.541 125.432 117.241 129.924 117.241C141.938 117.241 153.152 112.214 161.085 103.521C160.873 102.802 160.759 102.041 160.759 101.252C160.759 96.767 164.395 93.1309 168.88 93.1309C173.365 93.1311 177 96.7671 177 101.252C177 105.294 174.044 108.646 170.175 109.266C160.196 121.018 145.605 127.86 129.92 127.86C124.716 127.86 119.583 127.103 114.642 125.616V125.631C111.289 124.576 107.788 124.041 104.234 124.041C95.8948 124.041 87.8384 127.05 81.5518 132.512C75.58 137.701 71.5757 144.757 70.1846 152.474C70.3686 152.626 70.5533 152.777 70.7373 152.93C70.9461 153.103 71.1549 153.276 71.3672 153.446C71.6822 153.698 72.0011 153.942 72.3232 154.187C72.525 154.342 72.7234 154.498 72.9287 154.65H72.9424C73.2999 154.919 73.6686 155.178 74.0332 155.437C74.2065 155.56 74.3726 155.684 74.5459 155.805C75.0875 156.18 75.6366 156.548 76.1924 156.905C76.9355 157.383 77.6893 157.836 78.4502 158.278C82.514 144.848 95.0099 135.156 109.615 135.156C111.817 135.156 114.009 135.376 116.157 135.814V135.801C116.369 135.854 116.582 135.9 116.794 135.953C117.063 136.013 117.332 136.076 117.598 136.144C120.61 136.83 123.697 137.312 126.794 137.577C137.651 138.501 148.412 136.781 158.306 132.576C158.865 128.64 162.25 125.609 166.342 125.609C170.827 125.61 174.462 129.245 174.462 133.729C174.462 138.214 170.827 141.85 166.342 141.851C165.606 141.851 164.897 141.751 164.221 141.57C154.26 146.105 143.491 148.445 132.521 148.445C130.313 148.445 128.101 148.353 125.885 148.162C122.398 147.865 118.918 147.323 115.513 146.562V146.576C115.385 146.541 115.261 146.508 115.134 146.477C114.865 146.416 114.596 146.35 114.327 146.286C112.784 145.946 111.198 145.772 109.602 145.772C99.2404 145.772 90.4611 153.004 88.2168 162.792C94.3655 164.962 100.875 166.091 107.502 166.091C112.744 166.091 117.895 165.397 122.879 164.027C123.987 160.859 127 158.583 130.547 158.583C135.032 158.583 138.667 162.218 138.667 166.703C138.667 171.188 135.032 174.824 130.547 174.824C129.219 174.824 127.969 174.505 126.861 173.938C120.603 175.779 114.115 176.714 107.506 176.714C94.3022 176.714 81.4772 172.951 70.4258 165.829C59.6682 158.898 51.0808 149.139 45.5869 137.609L44.9355 136.232V136.193C40.9709 127.365 38.96 117.949 38.96 108.172C38.96 90.8161 45.4277 74.5431 56.6631 62.1572C57.1409 60.5255 57.4023 58.8053 57.4023 57.0215C57.4023 50.6321 54.1137 45.0106 49.1367 41.7539C47.9618 40.9857 48.5075 39.1455 49.9092 39.1455H49.9658ZM107.506 50.2461C98.1077 50.2461 89.1412 52.4229 80.8545 56.7236V56.7275C61.5623 66.7453 49.5791 86.4588 49.5791 108.176C49.5791 111.365 49.8343 114.508 50.3369 117.595C58.6662 101.531 75.4493 90.7559 94.5254 90.7559C97.4916 90.7559 100.44 91.0252 103.336 91.542C103.042 89.9315 102.886 88.2749 102.886 86.583C102.886 82.6078 103.736 78.8268 105.269 75.418C105.453 75.0038 106.072 75.1348 106.072 75.5879V75.6094C106.072 84.0268 110.815 91.3361 117.774 95.0176C117.966 95.0424 118.161 95.0715 118.355 95.0928C118.642 95.1211 118.925 95.1452 119.212 95.1699C119.4 95.1841 119.591 95.2056 119.782 95.2197C120.101 95.2445 120.419 95.2583 120.737 95.2725C120.897 95.2795 121.057 95.2908 121.216 95.2979C121.693 95.312 122.171 95.3223 122.652 95.3223C135.134 95.3223 146.61 89.4817 153.931 79.7295C154.688 78.7206 155.4 77.6694 156.065 76.5791C151.17 69.0711 144.568 62.7554 136.826 58.2031C127.977 52.9961 117.839 50.2461 107.506 50.2461ZM129.082 63.5703C132.894 63.5705 135.984 66.6605 135.984 70.4727C135.984 74.2848 132.894 77.3749 129.082 77.375C125.27 77.375 122.179 74.2849 122.179 70.4727C122.179 66.6605 125.27 63.5703 129.082 63.5703Z" fill="url(#paint1_linear_2010_2)"/>
<defs>
<linearGradient id="paint0_linear_2010_2" x1="143.04" y1="58.9523" x2="58.5921" y2="163.78" gradientUnits="userSpaceOnUse">
<stop stop-color="#C145FF"/>
<stop offset="0.329689" stop-color="#0073FF"/>
<stop offset="0.706667" stop-color="#68FFC2"/>
<stop offset="1" stop-color="#CAFD64"/>
</linearGradient>
<linearGradient id="paint1_linear_2010_2" x1="147.5" y1="39" x2="87" y2="177" gradientUnits="userSpaceOnUse">
<stop stop-color="#00FF66"/>
<stop offset="1" stop-color="#00FF99"/>
</linearGradient>
</defs>
</svg>
